<svg width="239" height="80" viewBox="0 0 239 80" fill="none" xmlns="http://www.w3.org/2000/svg">
<path d="M238.5 21.2874L230.411 18.1932L231.776 26.7453L238.5 21.2874ZM0.624223 45.1491C23.9411 58.6483 43.7863 65.1144 62.0302 66.9218C80.2749 68.7292 96.8663 65.8721 113.661 60.7994C130.426 55.736 147.475 48.4351 166.533 41.3625C185.618 34.28 206.8 27.3917 231.965 23.0897L231.712 21.6111C206.419 25.9349 185.141 32.8571 166.011 39.9562C146.854 47.0653 129.935 54.3171 113.227 59.3635C96.5498 64.4008 80.1647 67.2109 62.1781 65.4291C44.1908 63.6472 24.55 57.2676 1.37578 43.8509L0.624223 45.1491Z" fill="#04617E"/>
<circle cx="175.5" cy="40" r="40" fill="url(#paint0_linear_3_36)"/>
<path d="M24.5938 36.125C24.7604 36.0417 24.875 35.8958 24.9375 35.6875C25 35.4792 25.0312 35.2708 25.0312 35.0625C25.0312 34.625 24.8646 34.3229 24.5312 34.1562C24.2188 33.9688 23.8646 33.8333 23.4688 33.75C23.0938 33.6458 22.7396 33.5417 22.4062 33.4375C22.0938 33.3125 21.9375 33.0938 21.9375 32.7812C21.9375 32.6771 21.9792 32.5938 22.0625 32.5312C22.1458 32.4479 22.25 32.3854 22.375 32.3438C22.5 32.2812 22.625 32.2292 22.75 32.1875C22.8958 32.1458 23.0208 32.1042 23.125 32.0625C23.2292 32.0208 23.3958 31.9792 23.625 31.9375C23.875 31.8958 24.0208 31.875 24.0625 31.875H29.5625C29.9375 31.7083 30.3021 31.6146 30.6562 31.5938C31.0104 31.5521 31.3646 31.5312 31.7188 31.5312C31.9896 31.5312 32.2396 31.5417 32.4688 31.5625C32.7188 31.5625 32.9271 31.5938 33.0938 31.6562C33.2812 31.7188 33.4271 31.8333 33.5312 32C33.6354 32.1667 33.6875 32.4062 33.6875 32.7188C33.6875 33.1562 33.5625 33.4896 33.3125 33.7188C33.0833 33.9479 32.7917 34.125 32.4375 34.25C32.0833 34.3542 31.7083 34.4375 31.3125 34.5C30.9375 34.5625 30.6042 34.6354 30.3125 34.7188C29.375 35.0521 28.5417 35.5 27.8125 36.0625C27.1042 36.6042 26.4271 37.2708 25.7812 38.0625C25.7188 38.125 25.6042 38.2604 25.4375 38.4688C25.2708 38.6562 25.0833 38.8646 24.875 39.0938C24.6875 39.3229 24.5104 39.5417 24.3438 39.75C24.1771 39.9375 24.0625 40.0625 24 40.125C23.9167 40.2292 23.8229 40.3542 23.7188 40.5C23.6146 40.6458 23.4896 40.7708 23.3438 40.875C23.0729 41.1042 22.8125 41.3958 22.5625 41.75C22.3125 42.1042 22.1042 42.4479 21.9375 42.7812C21.8542 42.9271 21.7812 43.0625 21.7188 43.1875C21.6771 43.3125 21.6562 43.4792 21.6562 43.6875C21.6562 44.125 21.7708 44.5833 22 45.0625C22.2292 45.5417 22.4479 45.9896 22.6562 46.4062C22.7396 46.5312 22.8438 46.7188 22.9688 46.9688C23.0938 47.1979 23.2188 47.4271 23.3438 47.6562C23.4688 47.8854 23.5729 48.0938 23.6562 48.2812C23.7604 48.4688 23.8229 48.5833 23.8438 48.625C23.8646 48.6667 23.9375 48.7917 24.0625 49C24.2083 49.1875 24.3646 49.4062 24.5312 49.6562C24.6979 49.8854 24.8438 50.1042 24.9688 50.3125C25.1146 50.5208 25.2083 50.6562 25.25 50.7188L26 52.125C26.25 52.7083 26.5104 53.2917 26.7812 53.875C27.0521 54.4375 27.3438 54.9896 27.6562 55.5312C27.9688 56.0521 28.3229 56.5521 28.7188 57.0312C29.1146 57.5104 29.5729 57.9688 30.0938 58.4062C30.2812 58.5521 30.5208 58.6771 30.8125 58.7812C31.1042 58.8646 31.3854 58.9583 31.6562 59.0625C31.9479 59.1667 32.1875 59.3125 32.375 59.5C32.5833 59.6667 32.6875 59.9167 32.6875 60.25C32.6875 60.6667 32.5521 60.9271 32.2812 61.0312C32.0312 61.1562 31.7396 61.2188 31.4062 61.2188C31.2188 61.2188 31.0208 61.2083 30.8125 61.1875C30.625 61.1667 30.4583 61.1562 30.3125 61.1562C30.2292 61.1979 30.0208 61.2292 29.6875 61.25C29.3542 61.2917 28.9896 61.3333 28.5938 61.375C28.2188 61.4167 27.8646 61.4479 27.5312 61.4688C27.1979 61.4896 26.9896 61.5 26.9062 61.5H26.75C26.7292 61.5 26.6562 61.4896 26.5312 61.4688C26.4062 61.4479 26.2708 61.4167 26.125 61.375C26 61.3333 25.8646 61.2917 25.7188 61.25C25.5938 61.2292 25.5208 61.1979 25.5 61.1562C25.3958 61.1562 25.1771 61.1458 24.8438 61.125C24.5312 61.1042 24.1875 61.0833 23.8125 61.0625C23.4583 61.0625 23.125 61.0521 22.8125 61.0312C22.5 61.0104 22.3021 61 22.2188 61C22.1354 61 21.9583 60.9792 21.6875 60.9375C21.4375 60.875 21.2708 60.8229 21.1875 60.7812V60.5625C21.1875 60.2292 21.2604 60 21.4062 59.875C21.5729 59.75 21.7396 59.6458 21.9062 59.5625C22.0938 59.4583 22.2604 59.3333 22.4062 59.1875C22.5729 59.0417 22.6562 58.7812 22.6562 58.4062C22.6562 58.1979 22.5938 57.8646 22.4688 57.4062C22.3438 56.9479 22.1667 56.4479 21.9375 55.9062C21.7292 55.3438 21.4896 54.7708 21.2188 54.1875C20.9688 53.6042 20.6979 53.0729 20.4062 52.5938C20.1354 52.1146 19.875 51.7188 19.625 51.4062C19.375 51.0938 19.1562 50.9375 18.9688 50.9375C18.6146 50.9375 18.3229 51.0417 18.0938 51.25C17.8646 51.4375 17.6667 51.6771 17.5 51.9688C17.3333 52.2396 17.1875 52.5312 17.0625 52.8438C16.9375 53.1562 16.8125 53.4271 16.6875 53.6562C16.625 53.7604 16.4688 54.0104 16.2188 54.4062C15.9688 54.7812 15.6875 55.1979 15.375 55.6562C15.0833 56.1146 14.8021 56.5417 14.5312 56.9375C14.2812 57.3333 14.125 57.5729 14.0625 57.6562C14.0208 57.6771 13.9688 57.75 13.9062 57.875C13.8646 57.9792 13.8229 58.0521 13.7812 58.0938V58.3125C13.7812 58.6042 13.9062 58.8125 14.1562 58.9375C14.4062 59.0625 14.6979 59.1771 15.0312 59.2812C15.3646 59.3646 15.6979 59.4792 16.0312 59.625C16.3854 59.75 16.6562 59.9583 16.8438 60.25C16.8438 60.5208 16.7708 60.7083 16.625 60.8125C16.5 60.8958 16.3438 60.9583 16.1562 61H7.40625C7.23958 61 7.13542 60.9375 7.09375 60.8125C7.07292 60.6667 7.0625 60.5625 7.0625 60.5V60.25C7.3125 59.9583 7.59375 59.7188 7.90625 59.5312C8.23958 59.3438 8.57292 59.1771 8.90625 59.0312C9.26042 58.8854 9.61458 58.75 9.96875 58.625C10.3229 58.4792 10.6562 58.3021 10.9688 58.0938C11.0521 58.0104 11.2188 57.8542 11.4688 57.625C11.7188 57.375 11.9792 57.1146 12.25 56.8438C12.5417 56.5729 12.8125 56.3125 13.0625 56.0625C13.3333 55.8125 13.5208 55.6354 13.625 55.5312C14.1667 54.9062 14.625 54.2604 15 53.5938C15.3958 52.9062 15.7812 52.2083 16.1562 51.5C16.1979 51.4375 16.2917 51.3438 16.4375 51.2188C16.5833 51.0729 16.6667 50.9792 16.6875 50.9375C16.75 50.8542 16.8333 50.7396 16.9375 50.5938C17.0625 50.4271 17.1667 50.2708 17.25 50.125C17.3542 49.9792 17.4375 49.8542 17.5 49.75C17.5833 49.625 17.625 49.5521 17.625 49.5312C17.625 49.5312 17.625 49.4792 17.625 49.375C17.6458 49.25 17.6562 49.1146 17.6562 48.9688C17.6771 48.8229 17.6875 48.6875 17.6875 48.5625C17.7083 48.4167 17.7188 48.3125 17.7188 48.25C17.7188 48.1875 17.7083 48.0938 17.6875 47.9688C17.6875 47.8438 17.6771 47.7083 17.6562 47.5625C17.6562 47.4167 17.6458 47.2812 17.625 47.1562C17.625 47.0104 17.625 46.9167 17.625 46.875C17.0417 46.5208 16.6042 46.1146 16.3125 45.6562C16.0208 45.1771 15.75 44.6354 15.5 44.0312C15.4792 43.9688 15.4167 43.8542 15.3125 43.6875C15.2083 43.5208 15.1042 43.3542 15 43.1875C14.8958 43 14.7917 42.8333 14.6875 42.6875C14.6042 42.5208 14.5521 42.4271 14.5312 42.4062C14.4479 42.2396 14.3229 41.9792 14.1562 41.625C14.0104 41.2708 13.8854 41.0208 13.7812 40.875C13.7396 40.8542 13.6979 40.7917 13.6562 40.6875C13.6146 40.5625 13.5729 40.4375 13.5312 40.3125C13.4896 40.1875 13.4479 40.0625 13.4062 39.9375C13.3854 39.8125 13.3646 39.7292 13.3438 39.6875L13.2812 39.625C13.2604 39.6042 13.2292 39.5938 13.1875 39.5938C13.1667 39.5729 13.1458 39.5417 13.125 39.5C13.0417 39.4375 12.9688 39.375 12.9062 39.3125C12.4896 38.7917 12.1562 38.25 11.9062 37.6875C11.6771 37.125 11.3646 36.6042 10.9688 36.125C10.6979 35.8125 10.4167 35.5417 10.125 35.3125C9.83333 35.0625 9.53125 34.8333 9.21875 34.625C8.92708 34.4167 8.625 34.2083 8.3125 34C8 33.7917 7.69792 33.5521 7.40625 33.2812C7.23958 33.1771 7.13542 33.0521 7.09375 32.9062C7.07292 32.7396 7.0625 32.5729 7.0625 32.4062C7.0625 32.1771 7.11458 32.0312 7.21875 31.9688C7.32292 31.9062 7.48958 31.875 7.71875 31.875H7.84375C7.84375 31.875 7.88542 31.8854 7.96875 31.9062C8.07292 31.9271 8.17708 31.9479 8.28125 31.9688C8.40625 31.9896 8.51042 32.0104 8.59375 32.0312C8.69792 32.0521 8.77083 32.0625 8.8125 32.0625H8.96875C10.3021 32.0625 11.6146 32.0208 12.9062 31.9375C14.2188 31.8542 15.5312 31.8125 16.8438 31.8125C17.3438 31.8125 17.7083 31.875 17.9375 32C18.1875 32.1042 18.3125 32.3958 18.3125 32.875C18.3125 33.2917 18.2292 33.5833 18.0625 33.75C17.8958 33.8958 17.7083 34.0104 17.5 34.0938C17.2917 34.1771 17.1042 34.2812 16.9375 34.4062C16.7708 34.5312 16.6875 34.7812 16.6875 35.1562C16.6875 35.3229 16.75 35.5417 16.875 35.8125C17 36.0625 17.1042 36.2396 17.1875 36.3438C17.25 36.4479 17.3854 36.7083 17.5938 37.125C17.8229 37.5208 18.0625 37.9583 18.3125 38.4375C18.5833 38.8958 18.8333 39.3229 19.0625 39.7188C19.2917 40.1146 19.4375 40.3646 19.5 40.4688C19.6458 40.6771 19.7708 40.8438 19.875 40.9688C20 41.0938 20.1458 41.1562 20.3125 41.1562C20.5625 41.1562 20.8438 41.0521 21.1562 40.8438C21.4896 40.6146 21.9167 40.3021 22.4375 39.9062C22.6458 39.7396 22.8542 39.4792 23.0625 39.125C23.2917 38.75 23.5 38.375 23.6875 38C23.875 37.6042 24.0417 37.2292 24.1875 36.875C24.3542 36.5208 24.4896 36.2708 24.5938 36.125ZM47.5938 47.0938C47.6562 47.2812 47.7812 47.4375 47.9688 47.5625C48.1771 47.6667 48.4062 47.7396 48.6562 47.7812C48.9062 47.8229 49.1458 47.8542 49.375 47.875C49.625 47.875 49.8333 47.875 50 47.875H50.2188C50.2812 47.7708 50.4167 47.6562 50.625 47.5312C50.8333 47.3854 50.9375 47.3021 50.9375 47.2812C50.9792 47.2812 51.1354 47.25 51.4062 47.1875C51.6979 47.125 51.8646 47.0938 51.9062 47.0938C51.9479 47.0938 52.0208 47.0625 52.125 47C52.2292 46.9167 52.3021 46.8646 52.3438 46.8438C52.4271 46.7604 52.5938 46.6354 52.8438 46.4688C53.1146 46.2812 53.2917 46.1667 53.375 46.125C53.4792 46.0417 53.625 45.9167 53.8125 45.75C54 45.5625 54.1875 45.3854 54.375 45.2188C54.5625 45.0312 54.7188 44.875 54.8438 44.75C54.9896 44.6042 55.0729 44.5208 55.0938 44.5C55.1146 44.4375 55.1458 44.3125 55.1875 44.125C55.25 43.9167 55.3125 43.7083 55.375 43.5C55.4375 43.2708 55.5 43.0625 55.5625 42.875C55.625 42.6667 55.6667 42.5417 55.6875 42.5C55.7083 42.4583 55.7396 42.3438 55.7812 42.1562C55.8438 41.9688 55.9062 41.7604 55.9688 41.5312C56.0312 41.3021 56.0833 41.0938 56.125 40.9062C56.1875 40.7188 56.2188 40.6042 56.2188 40.5625C56.2604 40.5625 56.2812 40.4792 56.2812 40.3125C56.2812 40.1458 56.2812 40.0104 56.2812 39.9062V39.4688C56.2812 39.3021 56.2604 39.1771 56.2188 39.0938C56.1771 39.0104 56.1042 38.8542 56 38.625C55.9792 38.5833 55.9479 38.5 55.9062 38.375C55.8646 38.2292 55.8229 38.0833 55.7812 37.9375C55.7396 37.7708 55.6979 37.625 55.6562 37.5C55.6146 37.3542 55.5938 37.2604 55.5938 37.2188C55.5521 37.1771 55.4792 37.0833 55.375 36.9375C55.2917 36.7917 55.2083 36.6458 55.125 36.5C55.0417 36.3333 54.9583 36.1875 54.875 36.0625C54.8125 35.9167 54.7812 35.8333 54.7812 35.8125C54.7396 35.7083 54.6354 35.5729 54.4688 35.4062C54.3229 35.2396 54.1667 35.0833 54 34.9375C53.8542 34.7708 53.7083 34.6354 53.5625 34.5312C53.4375 34.4062 53.375 34.3438 53.375 34.3438C53.3333 34.3229 53.25 34.2917 53.125 34.25C53.0208 34.2083 52.8854 34.1562 52.7188 34.0938C52.5729 34.0312 52.4167 33.9792 52.25 33.9375C52.1042 33.875 51.9896 33.8333 51.9062 33.8125C51.8021 33.7708 51.6667 33.7292 51.5 33.6875C51.3333 33.625 51.1562 33.5729 50.9688 33.5312C50.7812 33.4896 50.6146 33.4583 50.4688 33.4375C50.3229 33.3958 50.2396 33.375 50.2188 33.375H49.375C48.9792 33.375 48.6458 33.4062 48.375 33.4688C48.125 33.5104 47.8646 33.6979 47.5938 34.0312C47.4479 34.6562 47.3333 35.2396 47.25 35.7812C47.1875 36.3021 47.1354 36.8229 47.0938 37.3438C47.0729 37.8438 47.0521 38.3542 47.0312 38.875C47.0312 39.3958 47.0312 39.9583 47.0312 40.5625C47.0312 41.1667 47.0312 41.7396 47.0312 42.2812C47.0521 42.8021 47.0729 43.3229 47.0938 43.8438C47.1354 44.3646 47.1875 44.8854 47.25 45.4062C47.3333 45.9271 47.4479 46.4896 47.5938 47.0938ZM37.8438 59.9062C37.8438 59.7188 37.8542 59.5729 37.875 59.4688C37.9167 59.3646 38.0312 59.2292 38.2188 59.0625C38.3021 59.0208 38.4688 58.9479 38.7188 58.8438C38.9688 58.7396 39.1146 58.6667 39.1562 58.625C39.2396 58.5833 39.3958 58.5521 39.625 58.5312C39.8542 58.4896 40.0938 58.4583 40.3438 58.4375C40.6146 58.3958 40.8646 58.375 41.0938 58.375C41.3438 58.3542 41.5208 58.3438 41.625 58.3438L41.7812 58.125V54.25C41.8229 54.0833 41.8646 53.9271 41.9062 53.7812C41.9479 53.6562 41.9792 53.5521 42 53.4688C42.0417 53.3646 42.0625 53.3021 42.0625 53.2812C42.0625 53.1771 42.0521 52.9583 42.0312 52.625C42.0104 52.2708 42 51.9271 42 51.5938C42 51.4271 42 51.2812 42 51.1562C42 51.0312 42.0208 50.9375 42.0625 50.875C42.0625 50.875 42.0729 50.8333 42.0938 50.75C42.1146 50.6667 42.125 50.5729 42.125 50.4688C42.1458 50.3646 42.1667 50.2708 42.1875 50.1875C42.2083 50.0833 42.2188 50.0104 42.2188 49.9688V49.5938C42.2188 49.3646 42.2083 49.1771 42.1875 49.0312C42.1875 48.8854 42.1458 48.6979 42.0625 48.4688C42.0625 48.3854 42.0521 48.2188 42.0312 47.9688C42.0312 47.7188 42.0208 47.4583 42 47.1875C42 46.8958 41.9896 46.6354 41.9688 46.4062C41.9688 46.1562 41.9688 45.9896 41.9688 45.9062C41.9688 44.4479 42.0104 43.0312 42.0938 41.6562C42.1771 40.2812 42.2188 38.875 42.2188 37.4375V36.5625C42.2188 36.4583 42.1979 36.2917 42.1562 36.0625C42.1354 35.8125 42.0938 35.5521 42.0312 35.2812C41.9896 35.0104 41.9375 34.7604 41.875 34.5312C41.8333 34.3021 41.8021 34.1354 41.7812 34.0312C41.5938 33.7396 41.3438 33.5521 41.0312 33.4688C40.7396 33.3646 40.4167 33.3021 40.0625 33.2812C39.7292 33.2396 39.3958 33.1875 39.0625 33.125C38.7292 33.0625 38.4479 32.9062 38.2188 32.6562C38.1979 32.6354 38.1875 32.6042 38.1875 32.5625C38.1875 32.5 38.1875 32.4479 38.1875 32.4062C38.1875 32.2396 38.2812 32.0833 38.4688 31.9375C38.6562 31.7917 38.8854 31.6667 39.1562 31.5625C39.4271 31.4583 39.6875 31.375 39.9375 31.3125C40.2083 31.25 40.4271 31.2188 40.5938 31.2188C41.0312 31.2188 41.4271 31.2604 41.7812 31.3438C42.1354 31.4062 42.5521 31.4375 43.0312 31.4375C44.2604 31.4375 45.4479 31.4062 46.5938 31.3438C47.7604 31.2604 48.9688 31.2188 50.2188 31.2188H53.375C53.3958 31.2396 53.4583 31.2708 53.5625 31.3125C53.6667 31.3542 53.7812 31.3958 53.9062 31.4375C54.0312 31.4792 54.1458 31.5312 54.25 31.5938C54.3542 31.6354 54.4167 31.6667 54.4375 31.6875C54.5 31.6875 54.5938 31.6979 54.7188 31.7188C54.8646 31.7396 55.0104 31.7708 55.1562 31.8125C55.3021 31.8333 55.4271 31.8646 55.5312 31.9062C55.6562 31.9271 55.7292 31.9479 55.75 31.9688C55.7708 31.9896 55.8229 32.0417 55.9062 32.125C56.0104 32.1875 56.1146 32.2604 56.2188 32.3438C56.3438 32.4062 56.4479 32.4792 56.5312 32.5625C56.6354 32.625 56.6979 32.6562 56.7188 32.6562C56.7396 32.6562 56.8021 32.6771 56.9062 32.7188C57.0312 32.7604 57.1562 32.8125 57.2812 32.875C57.4271 32.9375 57.5521 33 57.6562 33.0625C57.7812 33.1042 57.8438 33.1354 57.8438 33.1562C58.0521 33.2396 58.2083 33.3333 58.3125 33.4375C58.4375 33.5208 58.5417 33.6146 58.625 33.7188C58.7292 33.8229 58.8229 33.9479 58.9062 34.0938C59.0104 34.2396 59.125 34.3958 59.25 34.5625C60.0208 35.4167 60.5417 36.3333 60.8125 37.3125C61.1042 38.2917 61.25 39.3229 61.25 40.4062C61.25 40.5729 61.25 40.7917 61.25 41.0625C61.25 41.3333 61.2396 41.4896 61.2188 41.5312C61.2188 41.5729 61.1979 41.6667 61.1562 41.8125C61.1146 41.9583 61.0729 42.1146 61.0312 42.2812C60.9896 42.4271 60.9375 42.5729 60.875 42.7188C60.8333 42.8438 60.8021 42.9167 60.7812 42.9375C60.4896 44 60.0417 44.9375 59.4375 45.75C58.8542 46.5625 58.1562 47.25 57.3438 47.8125C56.5312 48.3542 55.6354 48.7708 54.6562 49.0625C53.6771 49.3542 52.6562 49.5 51.5938 49.5C50.9896 49.5 50.3854 49.4062 49.7812 49.2188C49.1979 49.0312 48.625 48.9375 48.0625 48.9375H47.8125C47.7083 48.9375 47.6042 48.9583 47.5 49C47.4167 49.0417 47.3542 49.1354 47.3125 49.2812C47.2083 49.7812 47.1458 50.3438 47.125 50.9688C47.1042 51.5729 47.0938 52.1562 47.0938 52.7188V54.0312V57.1562C47.0938 57.5312 47.1979 57.8021 47.4062 57.9688C47.6146 58.1146 47.8646 58.2188 48.1562 58.2812C48.4688 58.3438 48.8021 58.3854 49.1562 58.4062C49.5104 58.4062 49.8333 58.4375 50.125 58.5C50.4375 58.5625 50.6979 58.6875 50.9062 58.875C51.1146 59.0417 51.2188 59.3125 51.2188 59.6875C51.2188 60.1667 51.0521 60.5104 50.7188 60.7188C50.4062 60.9062 49.9896 61 49.4688 61H38.7188C38.3854 61 38.1562 60.8854 38.0312 60.6562C37.9062 60.4062 37.8438 60.1562 37.8438 59.9062ZM67.8438 61C67.8021 61 67.6771 61.0208 67.4688 61.0625C67.2812 61.125 67.1771 61.1562 67.1562 61.1562H67.0312C66.7604 61.1562 66.4896 61.1458 66.2188 61.125C65.9688 61.1042 65.7396 61.0521 65.5312 60.9688C65.3438 60.8854 65.1875 60.7604 65.0625 60.5938C64.9375 60.4271 64.875 60.1979 64.875 59.9062V59.4375C64.8958 59.2292 65.1458 59.0833 65.625 59C66.125 58.8958 66.6771 58.8333 67.2812 58.8125C67.8854 58.7708 68.4583 58.7396 69 58.7188C69.5417 58.6771 69.8646 58.5938 69.9688 58.4688C69.9896 58.3646 70.0104 58.2708 70.0312 58.1875C70.0521 58.1042 70.0729 58.0312 70.0938 57.9688C70.1146 57.9062 70.125 57.8542 70.125 57.8125C70.125 57.7292 70.1354 57.6042 70.1562 57.4375C70.1979 57.25 70.2292 57.0625 70.25 56.875C70.2917 56.6667 70.3229 56.4792 70.3438 56.3125C70.3646 56.1458 70.375 56.0312 70.375 55.9688C70.375 55.8021 70.3854 55.4583 70.4062 54.9375C70.4271 54.3958 70.4479 53.8125 70.4688 53.1875C70.4896 52.5625 70.5104 51.9583 70.5312 51.375C70.5521 50.7917 70.5625 50.375 70.5625 50.125C70.5625 50.0208 70.5625 49.8333 70.5625 49.5625C70.5833 49.2708 70.5938 48.9583 70.5938 48.625C70.5938 48.2917 70.5833 47.9896 70.5625 47.7188C70.5625 47.4479 70.5625 47.2396 70.5625 47.0938L70.7188 46.6875C70.7188 46.6667 70.7292 46.4583 70.75 46.0625C70.7708 45.6458 70.7917 45.1562 70.8125 44.5938C70.8542 44.0312 70.8854 43.4583 70.9062 42.875C70.9479 42.2917 70.9688 41.8125 70.9688 41.4375V39.3125V37.0938C70.9688 37.0104 70.9479 36.8854 70.9062 36.7188C70.8854 36.5521 70.8646 36.3854 70.8438 36.2188C70.8229 36.0312 70.7917 35.875 70.75 35.75C70.7292 35.6042 70.7188 35.5104 70.7188 35.4688C70.6146 35.1562 70.4062 34.9375 70.0938 34.8125C69.8021 34.6667 69.4479 34.5625 69.0312 34.5C68.6354 34.4375 68.2083 34.4062 67.75 34.4062C67.3125 34.3854 66.9062 34.3438 66.5312 34.2812C66.1562 34.2188 65.8438 34.1146 65.5938 33.9688C65.3646 33.8021 65.25 33.5521 65.25 33.2188C65.25 33.0312 65.3125 32.8646 65.4375 32.7188C65.5625 32.5521 65.7083 32.4062 65.875 32.2812C66.0417 32.1562 66.2188 32.0625 66.4062 32C66.6146 31.9167 66.7917 31.875 66.9375 31.875C67.2292 31.875 67.5833 31.9167 68 32C68.4167 32.0833 68.7396 32.1042 68.9688 32.0625C69.0312 32.0625 69.1562 32.0521 69.3438 32.0312C69.5312 32.0104 69.7292 31.9896 69.9375 31.9688C70.1667 31.9479 70.375 31.9271 70.5625 31.9062C70.7708 31.8854 70.9062 31.875 70.9688 31.875C71.0729 31.875 71.3125 31.8854 71.6875 31.9062C72.0625 31.9271 72.4583 31.9479 72.875 31.9688C73.3125 31.9896 73.7188 32.0208 74.0938 32.0625C74.4688 32.0833 74.7083 32.1042 74.8125 32.125H75.1875H75.4688C75.5104 32.1042 75.6042 32.0833 75.75 32.0625C75.8958 32.0208 76.0417 31.9896 76.1875 31.9688C76.3542 31.9479 76.5 31.9271 76.625 31.9062C76.7708 31.8854 76.8542 31.875 76.875 31.875H78.4375C78.4583 31.875 78.5312 31.8646 78.6562 31.8438C78.7812 31.8229 78.9062 31.8021 79.0312 31.7812C79.1771 31.7604 79.3021 31.7396 79.4062 31.7188C79.5312 31.6979 79.6042 31.6875 79.625 31.6875H79.75C79.7917 31.6875 79.8229 31.6875 79.8438 31.6875C79.8854 31.6667 79.9271 31.6562 79.9688 31.6562C80.2188 31.6562 80.4688 31.6667 80.7188 31.6875C80.9688 31.7083 81.1979 31.7604 81.4062 31.8438C81.6146 31.9062 81.7812 32.0208 81.9062 32.1875C82.0521 32.3542 82.125 32.5833 82.125 32.875C82.125 32.9375 82.1042 33.0312 82.0625 33.1562C82.0208 33.2604 82 33.3333 82 33.375C81.8333 33.4792 81.5729 33.6354 81.2188 33.8438C80.8646 34.0312 80.5729 34.1458 80.3438 34.1875C80.2604 34.1875 80.0729 34.2083 79.7812 34.25C79.5104 34.2708 79.2188 34.3021 78.9062 34.3438C78.5938 34.3646 78.3021 34.3958 78.0312 34.4375C77.7604 34.4583 77.5938 34.4688 77.5312 34.4688C77.3646 34.4896 77.2188 34.5625 77.0938 34.6875C76.9896 34.7917 76.9167 34.9271 76.875 35.0938C76.6875 36.0312 76.5625 36.9583 76.5 37.875C76.4583 38.7917 76.4375 39.7292 76.4375 40.6875V43.6875V44.6875C76.4375 44.7083 76.4167 44.8333 76.375 45.0625C76.3542 45.2708 76.3229 45.5104 76.2812 45.7812C76.2604 46.0312 76.2292 46.2708 76.1875 46.5C76.1667 46.7292 76.1562 46.875 76.1562 46.9375V51.6875V53.5C76.1562 53.5625 76.1458 53.6979 76.125 53.9062C76.1042 54.1146 76.0833 54.3333 76.0625 54.5625C76.0417 54.7917 76.0208 55 76 55.1875C75.9792 55.375 75.9688 55.4896 75.9688 55.5312V55.6875V55.9688C75.9688 56.0104 76 56.125 76.0625 56.3125C76.125 56.4792 76.1562 56.5833 76.1562 56.625C76.1562 56.6667 76.125 56.7396 76.0625 56.8438C76 56.9271 75.9688 57 75.9688 57.0625C75.9479 57.125 75.9375 57.1875 75.9375 57.25C75.9167 57.2917 75.9062 57.3438 75.9062 57.4062C75.9062 57.4479 75.9062 57.4896 75.9062 57.5312C75.9062 57.9271 76.0208 58.3021 76.25 58.6562C76.5 58.9896 76.8125 59.1562 77.1875 59.1562H77.375C77.9792 59.0521 78.6042 58.9583 79.25 58.875C79.9167 58.7708 80.5521 58.7188 81.1562 58.7188H86.4375C86.5208 58.7188 86.6562 58.7083 86.8438 58.6875C87.0521 58.6667 87.25 58.6458 87.4375 58.625C87.625 58.6042 87.7917 58.5833 87.9375 58.5625C88.0833 58.5208 88.1667 58.4896 88.1875 58.4688C88.2292 58.4479 88.3125 58.3854 88.4375 58.2812C88.5625 58.1562 88.6979 58.0208 88.8438 57.875C89.0104 57.7083 89.1562 57.5521 89.2812 57.4062C89.4271 57.2604 89.5312 57.1458 89.5938 57.0625C89.5938 57.0417 89.6146 56.9896 89.6562 56.9062C89.6979 56.8021 89.7396 56.7083 89.7812 56.625C89.8229 56.5208 89.8646 56.4271 89.9062 56.3438C89.9479 56.2604 89.9792 56.2083 90 56.1875C90 56.1667 90.0312 56.1354 90.0938 56.0938C90.1771 56.0312 90.2604 55.9688 90.3438 55.9062C90.4271 55.8438 90.5 55.7917 90.5625 55.75C90.6458 55.7083 90.6979 55.6875 90.7188 55.6875L90.875 55.5312C90.9167 55.5104 91 55.3958 91.125 55.1875C91.25 54.9583 91.3125 54.8229 91.3125 54.7812C91.3958 54.6979 91.5 54.5729 91.625 54.4062C91.7708 54.2188 91.9167 54.0312 92.0625 53.8438C92.2292 53.6354 92.375 53.4479 92.5 53.2812C92.625 53.0938 92.7188 52.9688 92.7812 52.9062C92.8646 52.8021 92.9167 52.7396 92.9375 52.7188C92.9792 52.6979 93.0833 52.6875 93.25 52.6875C93.5833 52.6875 93.8438 52.8229 94.0312 53.0938C94.2188 53.3438 94.3542 53.6458 94.4375 54C94.5208 54.3542 94.5625 54.7188 94.5625 55.0938C94.5833 55.4479 94.5938 55.7396 94.5938 55.9688C94.5938 56.0729 94.5938 56.1979 94.5938 56.3438C94.5938 56.4896 94.5938 56.6354 94.5938 56.7812C94.5938 56.9271 94.5833 57.0521 94.5625 57.1562C94.5625 57.2604 94.5625 57.3125 94.5625 57.3125C94.5625 57.3542 94.5312 57.4688 94.4688 57.6562C94.4062 57.8229 94.375 57.9271 94.375 57.9688C94.3333 58.4479 94.3125 58.8646 94.3125 59.2188C94.3125 59.5521 94.2604 59.8438 94.1562 60.0938C94.0729 60.3438 93.9062 60.5521 93.6562 60.7188C93.4271 60.8854 93.0417 61.0312 92.5 61.1562C92.3125 61.1771 91.9688 61.1875 91.4688 61.1875C90.9688 61.2083 90.4271 61.2188 89.8438 61.2188C89.2812 61.2188 88.7396 61.2188 88.2188 61.2188C87.7188 61.2188 87.3646 61.2188 87.1562 61.2188C86.7812 61.2188 86.3021 61.2188 85.7188 61.2188C85.1354 61.2188 84.5625 61.2188 84 61.2188C83.4583 61.2188 82.9792 61.2083 82.5625 61.1875C82.1458 61.1875 81.9271 61.1771 81.9062 61.1562C81.8021 61.1562 81.5938 61.1458 81.2812 61.125C80.9896 61.125 80.6562 61.1146 80.2812 61.0938C79.9271 61.0938 79.5729 61.0833 79.2188 61.0625C78.8854 61.0417 78.625 61.0208 78.4375 61C78.4167 61 78.3542 60.9896 78.25 60.9688C78.1458 60.9479 78.0312 60.9271 77.9062 60.9062C77.7812 60.8854 77.6667 60.8646 77.5625 60.8438C77.4583 60.8229 77.3958 60.8021 77.375 60.7812H77.1875H76.875C76.7708 60.8021 76.5625 60.8229 76.25 60.8438C75.9375 60.8646 75.6042 60.8854 75.25 60.9062C74.8958 60.9271 74.5521 60.9479 74.2188 60.9688C73.9062 60.9896 73.7083 61 73.625 61H71.5312C71.4896 61 71.3438 61.0208 71.0938 61.0625C70.8646 61.125 70.7396 61.1562 70.7188 61.1562C70.5729 61.2396 70.3958 61.2812 70.1875 61.2812C70 61.3021 69.8542 61.3125 69.75 61.3125C69.6875 61.3125 69.5625 61.2917 69.375 61.25C69.1875 61.2292 68.9792 61.1979 68.75 61.1562C68.5417 61.1146 68.3438 61.0729 68.1562 61.0312C67.9688 61.0104 67.8646 61 67.8438 61ZM103.188 45.375V48.125C103.188 48.4167 103.198 48.7917 103.219 49.25C103.24 49.7083 103.281 50.1979 103.344 50.7188C103.406 51.2188 103.5 51.7083 103.625 52.1875C103.75 52.6667 103.927 53.0625 104.156 53.375C104.177 53.4167 104.24 53.4896 104.344 53.5938C104.469 53.6979 104.594 53.8229 104.719 53.9688C104.865 54.0938 104.99 54.2188 105.094 54.3438C105.219 54.4479 105.292 54.5208 105.312 54.5625C105.625 54.9167 105.917 55.2396 106.188 55.5312C106.458 55.8021 106.729 56.0729 107 56.3438C107.271 56.5938 107.552 56.8542 107.844 57.125C108.156 57.375 108.5 57.6354 108.875 57.9062C108.958 57.9688 109.073 58.0625 109.219 58.1875C109.365 58.2917 109.51 58.3958 109.656 58.5C109.823 58.5833 109.958 58.6667 110.062 58.75C110.188 58.8125 110.26 58.8438 110.281 58.8438H110.594H111.25C111.292 58.8438 111.417 58.8854 111.625 58.9688C111.854 59.0521 111.979 59.0938 112 59.0938H112.219H112.438C112.458 59.0938 112.521 59.0833 112.625 59.0625C112.729 59.0417 112.833 59.0208 112.938 59C113.042 58.9583 113.135 58.9271 113.219 58.9062C113.323 58.8646 113.385 58.8438 113.406 58.8438C113.656 58.8021 113.865 58.7812 114.031 58.7812C114.198 58.7604 114.354 58.7396 114.5 58.7188C114.646 58.6771 114.792 58.6354 114.938 58.5938C115.104 58.5312 115.312 58.4479 115.562 58.3438C116.438 57.9896 117.125 57.5625 117.625 57.0625C118.146 56.5625 118.656 55.8958 119.156 55.0625C119.156 55.0208 119.188 54.8958 119.25 54.6875C119.333 54.4792 119.375 54.3438 119.375 54.2812C119.375 54.2812 119.406 54.25 119.469 54.1875C119.552 54.125 119.635 54.0625 119.719 54C119.802 53.9167 119.875 53.8438 119.938 53.7812C120.021 53.7188 120.062 53.6771 120.062 53.6562C120.292 53.3646 120.469 52.9688 120.594 52.4688C120.719 51.9479 120.865 51.5104 121.031 51.1562L121.531 50.5625V49.5938C121.531 49.5521 121.552 49.4479 121.594 49.2812C121.656 49.0938 121.688 48.9479 121.688 48.8438C121.688 48.8021 121.667 48.7292 121.625 48.625C121.604 48.5 121.562 48.375 121.5 48.25C121.458 48.1042 121.406 47.9792 121.344 47.875C121.302 47.75 121.271 47.6771 121.25 47.6562C121.25 47.5729 121.24 47.375 121.219 47.0625C121.198 46.7292 121.177 46.375 121.156 46C121.135 45.625 121.115 45.2708 121.094 44.9375C121.073 44.6042 121.052 44.3854 121.031 44.2812C121.031 44.2396 121 44.1562 120.938 44.0312C120.896 43.8854 120.844 43.7396 120.781 43.5938C120.74 43.4271 120.688 43.2812 120.625 43.1562C120.583 43.0104 120.562 42.9167 120.562 42.875C120.542 42.8333 120.51 42.7083 120.469 42.5C120.427 42.2917 120.375 42.0625 120.312 41.8125C120.271 41.5625 120.219 41.3333 120.156 41.125C120.115 40.8958 120.083 40.7604 120.062 40.7188C120.062 40.6979 120.031 40.6354 119.969 40.5312C119.927 40.4062 119.885 40.3229 119.844 40.2812C119.823 40.2396 119.74 40.1562 119.594 40.0312C119.469 39.8854 119.323 39.7396 119.156 39.5938C118.99 39.4271 118.833 39.2812 118.688 39.1562C118.542 39.0104 118.458 38.9167 118.438 38.875C118.375 38.7917 118.323 38.7083 118.281 38.625C118.198 38.4583 118.156 38.3646 118.156 38.3438C118.073 38.2604 117.958 38.1354 117.812 37.9688C117.667 37.7812 117.51 37.5833 117.344 37.375C117.198 37.1667 117.062 36.9792 116.938 36.8125C116.812 36.6458 116.74 36.5312 116.719 36.4688C116.406 36.0938 116.042 35.7917 115.625 35.5625C115.208 35.3333 114.771 35.1458 114.312 35C113.875 34.8542 113.417 34.7604 112.938 34.7188C112.458 34.6562 112 34.625 111.562 34.625C110.958 34.625 110.479 34.6771 110.125 34.7812C109.792 34.8854 109.5 35.0312 109.25 35.2188C109 35.3854 108.75 35.5833 108.5 35.8125C108.25 36.0208 107.927 36.2396 107.531 36.4688C107.302 36.5938 107.031 36.7188 106.719 36.8438C106.427 36.9479 106.208 37.125 106.062 37.375C106.042 37.3958 106.021 37.4583 106 37.5625C105.979 37.6667 105.958 37.7812 105.938 37.9062C105.917 38.0104 105.885 38.1146 105.844 38.2188C105.823 38.3021 105.802 38.3438 105.781 38.3438C105.76 38.3854 105.719 38.4583 105.656 38.5625C105.594 38.6667 105.521 38.7708 105.438 38.875C105.375 38.9792 105.312 39.0833 105.25 39.1875C105.188 39.2708 105.156 39.3125 105.156 39.3125C105.115 39.375 105.052 39.4896 104.969 39.6562C104.885 39.8229 104.802 40 104.719 40.1875C104.635 40.375 104.552 40.5521 104.469 40.7188C104.406 40.8854 104.365 40.9792 104.344 41L104.156 41.2812C104.156 41.3021 104.146 41.3646 104.125 41.4688C104.104 41.5521 104.083 41.6458 104.062 41.75C104.042 41.8333 104.01 41.9271 103.969 42.0312C103.948 42.1146 103.927 42.1667 103.906 42.1875C103.885 42.25 103.844 42.3333 103.781 42.4375C103.719 42.5208 103.646 42.6771 103.562 42.9062C103.479 43.1354 103.396 43.4479 103.312 43.8438C103.25 44.2396 103.208 44.75 103.188 45.375ZM98.4375 47.6562V43.4375C98.5208 42.9375 98.625 42.3958 98.75 41.8125C98.8958 41.2292 99.0625 40.6562 99.25 40.0938C99.4375 39.5104 99.6562 38.9583 99.9062 38.4375C100.156 37.8958 100.438 37.4167 100.75 37C100.854 36.9167 100.948 36.8125 101.031 36.6875C101.135 36.5417 101.208 36.4688 101.25 36.4688C101.292 36.4479 101.385 36.4062 101.531 36.3438C101.677 36.2812 101.833 36.2188 102 36.1562C102.188 36.0729 102.344 36 102.469 35.9375C102.615 35.8542 102.698 35.7917 102.719 35.75C102.844 35.6667 103.01 35.5312 103.219 35.3438C103.448 35.1562 103.677 34.9583 103.906 34.75C104.156 34.5417 104.396 34.3438 104.625 34.1562C104.854 33.9479 105.031 33.7812 105.156 33.6562L107.188 33.2812C107.458 33.0104 107.885 32.7708 108.469 32.5625C109.073 32.3542 109.708 32.1875 110.375 32.0625C111.062 31.9167 111.708 31.8125 112.312 31.75C112.938 31.6875 113.417 31.6562 113.75 31.6562H114.812C114.875 31.6771 114.99 31.7083 115.156 31.75C115.323 31.7708 115.5 31.7917 115.688 31.8125C115.875 31.8333 116.052 31.8542 116.219 31.875C116.385 31.8958 116.5 31.9062 116.562 31.9062H117.75C118.083 31.9896 118.427 32.1562 118.781 32.4062C119.156 32.6354 119.51 32.8958 119.844 33.1875C120.198 33.4792 120.531 33.7708 120.844 34.0625C121.156 34.3542 121.438 34.5938 121.688 34.7812C121.792 34.8229 121.969 34.9062 122.219 35.0312C122.49 35.1354 122.656 35.2188 122.719 35.2812C122.885 35.3854 123.031 35.5208 123.156 35.6875C123.281 35.8542 123.396 36.0312 123.5 36.2188C123.625 36.3854 123.74 36.5521 123.844 36.7188C123.948 36.8854 124.062 37.0312 124.188 37.1562C124.188 37.2188 124.219 37.2604 124.281 37.2812C124.302 37.3229 124.333 37.3542 124.375 37.375C124.458 37.5 124.573 37.6771 124.719 37.9062C124.885 38.1354 125.042 38.3646 125.188 38.5938C125.354 38.8229 125.49 39.0312 125.594 39.2188C125.719 39.4062 125.781 39.5312 125.781 39.5938C126.073 40.0729 126.292 40.6875 126.438 41.4375C126.583 42.1875 126.688 42.9688 126.75 43.7812C126.812 44.5938 126.844 45.3958 126.844 46.1875C126.865 46.9583 126.875 47.625 126.875 48.1875C126.875 48.25 126.865 48.3854 126.844 48.5938C126.844 48.7812 126.833 48.9896 126.812 49.2188C126.812 49.4479 126.802 49.6667 126.781 49.875C126.781 50.0625 126.781 50.1875 126.781 50.25C126.323 51.0417 125.948 51.8125 125.656 52.5625C125.385 53.2917 125.083 53.9896 124.75 54.6562C124.438 55.3229 124.052 55.9688 123.594 56.5938C123.135 57.1979 122.5 57.7812 121.688 58.3438C121.583 58.4479 121.417 58.5833 121.188 58.75C120.979 58.9167 120.76 59.0833 120.531 59.25C120.323 59.3958 120.135 59.5312 119.969 59.6562C119.802 59.7604 119.708 59.8125 119.688 59.8125C119.458 59.9167 119.146 60.0417 118.75 60.1875C118.354 60.3125 117.948 60.4375 117.531 60.5625C117.135 60.6875 116.76 60.7917 116.406 60.875C116.073 60.9583 115.865 61 115.781 61C115.177 61.1042 114.583 61.1771 114 61.2188C113.417 61.2812 112.844 61.3125 112.281 61.3125C111.615 61.3125 110.958 61.2812 110.312 61.2188C109.688 61.1771 109.062 61.1042 108.438 61C108.396 61 108.25 60.9688 108 60.9062C107.771 60.8438 107.615 60.7812 107.531 60.7188C107.427 60.7188 107.292 60.6979 107.125 60.6562C106.979 60.5938 106.823 60.5417 106.656 60.5C106.51 60.4375 106.375 60.3854 106.25 60.3438C106.146 60.3021 106.083 60.2708 106.062 60.25C106.042 60.25 105.99 60.2188 105.906 60.1562C105.844 60.0938 105.76 60.0312 105.656 59.9688C105.573 59.8854 105.49 59.8125 105.406 59.75C105.344 59.6667 105.312 59.6146 105.312 59.5938C105.292 59.5729 105.219 59.5417 105.094 59.5C104.99 59.4583 104.865 59.4062 104.719 59.3438C104.594 59.2812 104.469 59.2292 104.344 59.1875C104.24 59.1458 104.177 59.1146 104.156 59.0938C103.615 58.7396 103.094 58.3229 102.594 57.8438C102.115 57.3438 101.667 56.8125 101.25 56.25C100.833 55.6875 100.469 55.1146 100.156 54.5312C99.8438 53.9271 99.5938 53.3229 99.4062 52.7188C99.3229 52.4688 99.2604 52.2604 99.2188 52.0938C99.1979 51.9062 99.1667 51.7292 99.125 51.5625C99.1042 51.375 99.0729 51.1875 99.0312 51C99.0104 50.7917 98.9583 50.5417 98.875 50.25C98.8333 50.125 98.8021 50.0208 98.7812 49.9375C98.7396 49.7292 98.7188 49.6146 98.7188 49.5938C98.6562 49.4062 98.6146 49.1042 98.5938 48.6875C98.5938 48.2708 98.5417 47.9271 98.4375 47.6562ZM141.406 40.3438C141.406 40.5521 141.406 40.8333 141.406 41.1875C141.406 41.5417 141.406 41.8958 141.406 42.25C141.427 42.5833 141.438 42.8958 141.438 43.1875C141.458 43.4583 141.49 43.6146 141.531 43.6562C141.531 43.6562 141.531 43.7292 141.531 43.875C141.552 44 141.562 44.1562 141.562 44.3438C141.583 44.5104 141.604 44.6875 141.625 44.875C141.646 45.0417 141.667 45.1771 141.688 45.2812C141.708 45.5521 141.75 45.8542 141.812 46.1875C141.875 46.5208 142.083 46.7708 142.438 46.9375C142.5 46.9583 142.594 46.9792 142.719 47C142.844 47 142.969 47 143.094 47C143.24 47 143.375 47 143.5 47C143.625 47 143.719 47 143.781 47C144.865 47 145.896 46.7083 146.875 46.125C147.875 45.5417 148.771 44.8438 149.562 44.0312C150.021 43.3646 150.292 42.5938 150.375 41.7188C150.479 40.8438 150.531 40.0104 150.531 39.2188V37.375C150.365 36.7708 150.094 36.1562 149.719 35.5312C149.344 34.8854 148.896 34.3854 148.375 34.0312C148.333 34.0312 148.219 34.0104 148.031 33.9688C147.865 33.9062 147.76 33.8542 147.719 33.8125C147.594 33.75 147.417 33.6771 147.188 33.5938C146.958 33.4896 146.802 33.4167 146.719 33.375C146.427 33.3333 146.135 33.3021 145.844 33.2812C145.573 33.2396 145.302 33.2188 145.031 33.2188C144.76 33.2188 144.479 33.2396 144.188 33.2812C143.917 33.3021 143.635 33.3333 143.344 33.375C143.198 33.3958 143.042 33.4583 142.875 33.5625C142.729 33.6667 142.594 33.7917 142.469 33.9375C142.344 34.0625 142.24 34.2083 142.156 34.375C142.073 34.5208 142.021 34.6562 142 34.7812C141.979 34.9271 141.938 35.1354 141.875 35.4062C141.833 35.6771 141.781 35.9583 141.719 36.25C141.677 36.5208 141.635 36.7708 141.594 37C141.552 37.2083 141.531 37.3333 141.531 37.375C141.49 37.3958 141.458 37.5208 141.438 37.75C141.438 37.9792 141.427 38.25 141.406 38.5625C141.406 38.875 141.406 39.1979 141.406 39.5312C141.406 39.8646 141.406 40.1354 141.406 40.3438ZM131.031 60.4062C131.031 60.0729 131.26 59.8438 131.719 59.7188C132.198 59.5729 132.729 59.4583 133.312 59.375C133.896 59.2708 134.448 59.1562 134.969 59.0312C135.51 58.9062 135.833 58.6979 135.938 58.4062C135.958 58.2188 135.99 57.8958 136.031 57.4375C136.073 56.9792 136.125 56.5 136.188 56C136.25 55.4792 136.302 55 136.344 54.5625C136.406 54.125 136.458 53.8229 136.5 53.6562V53.3125C136.5 52.5833 136.458 51.8438 136.375 51.0938C136.312 50.3438 136.281 49.5938 136.281 48.8438V48.4062C136.281 48.3438 136.292 48.1771 136.312 47.9062C136.333 47.6354 136.354 47.3542 136.375 47.0625C136.417 46.75 136.448 46.4688 136.469 46.2188C136.49 45.9688 136.5 45.8125 136.5 45.75C136.5 45.7292 136.5 45.5521 136.5 45.2188C136.5 44.8646 136.5 44.4583 136.5 44C136.521 43.5417 136.531 43.0729 136.531 42.5938C136.531 42.1146 136.531 41.7292 136.531 41.4375C136.531 41.2708 136.531 40.9896 136.531 40.5938C136.531 40.1979 136.521 39.7812 136.5 39.3438C136.5 38.8854 136.5 38.4583 136.5 38.0625C136.5 37.6458 136.5 37.3438 136.5 37.1562C136.5 36.6354 136.396 36.1875 136.188 35.8125C135.979 35.4167 135.75 35 135.5 34.5625C135.354 34.3125 135.052 34.1354 134.594 34.0312C134.156 33.9062 133.698 33.8125 133.219 33.75C132.76 33.6667 132.344 33.5729 131.969 33.4688C131.594 33.3438 131.406 33.1354 131.406 32.8438C131.406 32.7396 131.458 32.5938 131.562 32.4062C131.688 32.1979 131.812 32.0521 131.938 31.9688H133.844C133.927 31.9479 134.125 31.9271 134.438 31.9062C134.75 31.8646 135.073 31.8333 135.406 31.8125C135.76 31.7708 136.083 31.7396 136.375 31.7188C136.688 31.6979 136.885 31.6875 136.969 31.6875H139.125C139.146 31.6875 139.208 31.6771 139.312 31.6562C139.438 31.6354 139.562 31.6146 139.688 31.5938C139.833 31.5521 139.958 31.5208 140.062 31.5C140.188 31.4583 140.271 31.4375 140.312 31.4375H140.656H141.031C141.073 31.4375 141.156 31.4479 141.281 31.4688C141.427 31.4688 141.573 31.4792 141.719 31.5C141.885 31.5 142.031 31.5104 142.156 31.5312C142.302 31.5312 142.396 31.5312 142.438 31.5312C142.5 31.5312 142.646 31.5312 142.875 31.5312C143.104 31.5104 143.354 31.5 143.625 31.5C143.896 31.4792 144.156 31.4688 144.406 31.4688C144.656 31.4479 144.812 31.4375 144.875 31.4375H146H147.188C147.208 31.4375 147.281 31.4583 147.406 31.5C147.531 31.5208 147.656 31.5417 147.781 31.5625C147.927 31.5833 148.052 31.6042 148.156 31.625C148.281 31.6458 148.354 31.6562 148.375 31.6562C148.417 31.6562 148.531 31.6562 148.719 31.6562C148.906 31.6562 149.104 31.6667 149.312 31.6875C149.542 31.6875 149.75 31.6875 149.938 31.6875C150.146 31.6875 150.281 31.6875 150.344 31.6875C150.531 31.7292 150.792 31.8438 151.125 32.0312C151.479 32.2188 151.75 32.3646 151.938 32.4688C151.979 32.4688 152.073 32.4896 152.219 32.5312C152.385 32.5521 152.552 32.5833 152.719 32.625C152.885 32.6667 153.042 32.7083 153.188 32.75C153.333 32.7917 153.427 32.8229 153.469 32.8438C154.26 33.4479 154.854 34.1771 155.25 35.0312C155.667 35.8646 155.99 36.75 156.219 37.6875C156.26 37.6875 156.281 37.7292 156.281 37.8125C156.281 37.8958 156.281 37.9792 156.281 38.0625C156.281 38.5625 156.25 39.0833 156.188 39.625C156.146 40.1667 156.062 40.7083 155.938 41.25C155.812 41.7708 155.635 42.2708 155.406 42.75C155.198 43.2292 154.927 43.6562 154.594 44.0312C154.26 44.4479 153.865 44.875 153.406 45.3125C152.948 45.75 152.458 46.0417 151.938 46.1875C151.833 46.25 151.677 46.3021 151.469 46.3438C151.281 46.3854 151.073 46.4479 150.844 46.5312C150.635 46.6146 150.448 46.7292 150.281 46.875C150.135 47 150.062 47.1667 150.062 47.375C150.062 47.625 150.208 48.0104 150.5 48.5312C150.792 49.0312 151.125 49.5625 151.5 50.125C151.875 50.6667 152.25 51.1771 152.625 51.6562C153 52.1354 153.281 52.4792 153.469 52.6875C153.49 52.75 153.594 52.9062 153.781 53.1562C153.969 53.4062 154.188 53.6875 154.438 54C154.688 54.2917 154.938 54.5833 155.188 54.875C155.438 55.1667 155.635 55.3854 155.781 55.5312C155.885 55.6354 155.958 55.7292 156 55.8125C156.208 55.9583 156.469 56.1667 156.781 56.4375C157.094 56.6875 157.396 56.9375 157.688 57.1875C158 57.4375 158.271 57.6562 158.5 57.8438C158.75 58.0312 158.896 58.125 158.938 58.125C158.938 58.1458 158.979 58.1875 159.062 58.25C159.167 58.3125 159.281 58.3854 159.406 58.4688C159.531 58.5521 159.656 58.6354 159.781 58.7188C159.906 58.7812 160.021 58.8229 160.125 58.8438C160.229 58.9062 160.385 58.9896 160.594 59.0938C160.823 59.1979 161.042 59.3229 161.25 59.4688C161.458 59.5938 161.635 59.7396 161.781 59.9062C161.927 60.0521 161.979 60.1979 161.938 60.3438C161.938 60.4479 161.875 60.5417 161.75 60.625C161.646 60.7083 161.51 60.7812 161.344 60.8438C161.198 60.8854 161.042 60.9271 160.875 60.9688C160.729 60.9896 160.615 61 160.531 61H151.25C151.062 61 150.844 61 150.594 61C150.365 60.9792 150.135 60.9375 149.906 60.875C149.698 60.8125 149.51 60.7083 149.344 60.5625C149.198 60.4167 149.125 60.1979 149.125 59.9062C149.125 59.7604 149.208 59.6146 149.375 59.4688C149.542 59.3021 149.729 59.1458 149.938 59C150.167 58.8542 150.385 58.7083 150.594 58.5625C150.823 58.4167 150.99 58.2708 151.094 58.125V58.0938V57.875C151.031 57.7917 150.958 57.6771 150.875 57.5312C150.792 57.3854 150.708 57.2396 150.625 57.0938C150.562 56.9271 150.5 56.7917 150.438 56.6875C150.375 56.5625 150.344 56.4896 150.344 56.4688C150.281 56.4062 150.146 56.2396 149.938 55.9688C149.729 55.6771 149.5 55.375 149.25 55.0625C149 54.75 148.771 54.4583 148.562 54.1875C148.354 53.9167 148.219 53.7396 148.156 53.6562C147.781 53.1354 147.417 52.6667 147.062 52.25C146.708 51.8333 146.344 51.4375 145.969 51.0625C145.594 50.6875 145.188 50.3333 144.75 50C144.333 49.6458 143.865 49.2604 143.344 48.8438C143.177 48.6979 143.021 48.5417 142.875 48.375C142.75 48.2083 142.562 48.125 142.312 48.125H142.156C142.115 48.1667 142.083 48.2083 142.062 48.25C142.021 48.3333 142 48.3854 142 48.4062C141.979 48.6354 141.938 49.0417 141.875 49.625C141.833 50.2083 141.781 50.8333 141.719 51.5C141.677 52.1458 141.635 52.7708 141.594 53.375C141.552 53.9583 141.531 54.3542 141.531 54.5625C141.469 54.5625 141.427 54.6354 141.406 54.7812C141.406 54.9271 141.406 55.0208 141.406 55.0625C141.406 55.1458 141.406 55.25 141.406 55.375C141.427 55.4792 141.469 55.5312 141.531 55.5312C141.531 55.6354 141.552 55.8125 141.594 56.0625C141.635 56.3125 141.677 56.5833 141.719 56.875C141.781 57.1458 141.833 57.4062 141.875 57.6562C141.938 57.8854 141.979 58.0417 142 58.125C142 58.1875 142.021 58.2812 142.062 58.4062C142.125 58.5312 142.188 58.6562 142.25 58.7812C142.333 58.9062 142.406 59.0208 142.469 59.125C142.552 59.2292 142.615 59.2812 142.656 59.2812H144.875C144.875 59.3229 144.885 59.3646 144.906 59.4062C144.969 59.5104 145.01 59.5729 145.031 59.5938C145.177 59.7812 145.26 59.9062 145.281 59.9688C145.302 60.0312 145.312 60.1562 145.312 60.3438C145.312 60.5729 145.198 60.7292 144.969 60.8125C144.76 60.8958 144.542 60.9583 144.312 61H142.969C141.615 61 140.281 61.0312 138.969 61.0938C137.656 61.1771 136.302 61.2188 134.906 61.2188H132.156C131.865 61.2188 131.604 61.1667 131.375 61.0625C131.146 60.9583 131.031 60.7396 131.031 60.4062ZM164.25 61C164.25 60.9167 164.188 60.8021 164.062 60.6562C163.958 60.4896 163.896 60.3542 163.875 60.25V60.125V60.0938C163.917 60.0104 164.01 59.8854 164.156 59.7188C164.302 59.5521 164.458 59.3854 164.625 59.2188C164.812 59.0312 164.979 58.8646 165.125 58.7188C165.292 58.5729 165.406 58.4688 165.469 58.4062C165.51 58.3646 165.646 58.3229 165.875 58.2812C166.125 58.2188 166.302 58.1875 166.406 58.1875H168.625C168.688 58.1875 168.771 58.1771 168.875 58.1562C169 58.1146 169.115 58.0833 169.219 58.0625C169.344 58.0208 169.448 57.9792 169.531 57.9375C169.635 57.8958 169.688 57.875 169.688 57.875C169.979 57.7292 170.146 57.5 170.188 57.1875C170.25 56.8542 170.281 56.5417 170.281 56.25V55.75C170.281 55.0208 170.26 54.3333 170.219 53.6875C170.198 53.0208 170.188 52.3229 170.188 51.5938V51.375C170.188 51.3125 170.198 51.1979 170.219 51.0312C170.24 50.8646 170.26 50.6875 170.281 50.5C170.323 50.2917 170.365 50.1042 170.406 49.9375C170.448 49.7708 170.479 49.6562 170.5 49.5938V35.9688C170.5 35.5521 170.427 35.2188 170.281 34.9688C170.135 34.7188 169.948 34.5312 169.719 34.4062C169.49 34.2604 169.219 34.1667 168.906 34.125C168.615 34.0833 168.302 34.0625 167.969 34.0625H166.688C166.104 34.0625 165.615 33.9896 165.219 33.8438C164.823 33.6979 164.625 33.3438 164.625 32.7812C164.625 32.5938 164.625 32.4271 164.625 32.2812C164.646 32.1354 164.698 31.9375 164.781 31.6875C165.781 31.7292 166.76 31.6979 167.719 31.5938C168.677 31.4896 169.646 31.4375 170.625 31.4375H171.438C171.521 31.4583 171.688 31.4792 171.938 31.5C172.208 31.5208 172.479 31.5417 172.75 31.5625C173.042 31.5833 173.312 31.6042 173.562 31.625C173.812 31.6458 173.99 31.6667 174.094 31.6875H188.781C189.406 31.6875 189.854 31.8542 190.125 32.1875C190.396 32.5 190.594 32.8958 190.719 33.375V35.1562V37C190.719 37.125 190.698 37.3542 190.656 37.6875C190.615 38 190.562 38.3438 190.5 38.7188C190.458 39.0729 190.406 39.4271 190.344 39.7812C190.302 40.1146 190.271 40.3542 190.25 40.5C190.208 40.5625 190.135 40.6562 190.031 40.7812C189.927 40.8854 189.854 40.9375 189.812 40.9375C189.812 40.9792 189.792 41 189.75 41H189.719H189.625C189.562 41 189.531 40.9792 189.531 40.9375C189.177 40.6875 188.906 40.4062 188.719 40.0938C188.531 39.7604 188.375 39.4167 188.25 39.0625C188.125 38.7083 188.01 38.3542 187.906 38C187.802 37.6458 187.646 37.3125 187.438 37C187.396 36.9167 187.26 36.7812 187.031 36.5938C186.823 36.3854 186.708 36.2708 186.688 36.25C186.646 36.2083 186.552 36.0938 186.406 35.9062C186.281 35.7188 186.135 35.5208 185.969 35.3125C185.823 35.0833 185.677 34.875 185.531 34.6875C185.406 34.5 185.323 34.3854 185.281 34.3438C185.198 34.1562 185.104 34.0625 185 34.0625C184.979 34.0625 184.906 34.0521 184.781 34.0312C184.677 34.0104 184.552 33.9896 184.406 33.9688C184.281 33.9271 184.156 33.8958 184.031 33.875C183.927 33.8542 183.875 33.8333 183.875 33.8125C183.812 33.8125 183.698 33.7917 183.531 33.75C183.365 33.7083 183.177 33.6667 182.969 33.625C182.781 33.5833 182.604 33.5417 182.438 33.5C182.271 33.4375 182.167 33.3958 182.125 33.375H181.969C181.885 33.375 181.771 33.4062 181.625 33.4688C181.479 33.5104 181.375 33.5312 181.312 33.5312H181.219C181.156 33.5104 180.979 33.4896 180.688 33.4688C180.417 33.4479 180.115 33.4375 179.781 33.4375C179.448 33.4167 179.135 33.4062 178.844 33.4062C178.573 33.3854 178.406 33.375 178.344 33.375H178.25C177.875 33.375 177.562 33.4479 177.312 33.5938C177.062 33.7396 176.854 33.9271 176.688 34.1562C176.542 34.3854 176.406 34.6458 176.281 34.9375C176.177 35.2083 176.073 35.4792 175.969 35.75C175.948 35.9792 175.906 36.3542 175.844 36.875C175.802 37.3958 175.75 37.9479 175.688 38.5312C175.646 39.1146 175.604 39.6667 175.562 40.1875C175.521 40.7083 175.5 41.0729 175.5 41.2812V41.5312V41.6875C175.5 41.7917 175.51 41.9688 175.531 42.2188C175.552 42.4688 175.573 42.7396 175.594 43.0312C175.615 43.3021 175.635 43.5729 175.656 43.8438C175.698 44.0938 175.729 44.2604 175.75 44.3438C175.896 44.5312 176.062 44.7188 176.25 44.9062C176.458 45.0938 176.677 45.2188 176.906 45.2812H178.625C179.333 45.2812 179.948 45.2708 180.469 45.25C181.01 45.2292 181.656 45.1667 182.406 45.0625C182.427 45.0208 182.458 44.9479 182.5 44.8438C182.542 44.7396 182.594 44.6354 182.656 44.5312C182.719 44.4271 182.771 44.3333 182.812 44.25C182.854 44.1667 182.885 44.1146 182.906 44.0938C182.99 43.9479 183.094 43.7396 183.219 43.4688C183.344 43.1771 183.469 42.8958 183.594 42.625C183.719 42.3333 183.823 42.0833 183.906 41.875C184.01 41.6667 184.073 41.5521 184.094 41.5312C184.135 41.4479 184.177 41.2708 184.219 41C184.26 40.7083 184.302 40.5417 184.344 40.5C184.51 40.3125 184.729 40.1875 185 40.125C185.271 40.0625 185.542 40.0312 185.812 40.0312C186.104 40.0312 186.281 40.1458 186.344 40.375C186.427 40.5833 186.469 40.8229 186.469 41.0938V41.875V42.25C186.469 42.4375 186.448 42.625 186.406 42.8125C186.365 42.9792 186.292 43.1458 186.188 43.3125C186.167 43.5 186.146 43.8125 186.125 44.25C186.104 44.6875 186.083 45.1458 186.062 45.625C186.042 46.1042 186.021 46.5625 186 47C185.979 47.4167 185.969 47.7083 185.969 47.875V48.6875V50.5625C185.948 50.6042 185.927 50.6979 185.906 50.8438C185.885 50.9896 185.865 51.1562 185.844 51.3438C185.844 51.5104 185.833 51.6771 185.812 51.8438C185.792 52.0104 185.771 52.125 185.75 52.1875C185.521 52.3542 185.312 52.4792 185.125 52.5625C184.958 52.6458 184.75 52.6875 184.5 52.6875C184.333 52.6875 184.177 52.625 184.031 52.5C183.885 52.3542 183.75 52.1771 183.625 51.9688C183.5 51.7604 183.396 51.5521 183.312 51.3438C183.229 51.1146 183.177 50.9062 183.156 50.7188C183.135 50.6562 183.104 50.5208 183.062 50.3125C183.042 50.0833 183.021 49.8438 183 49.5938C182.979 49.3229 182.958 49.0729 182.938 48.8438C182.917 48.6146 182.906 48.4479 182.906 48.3438C182.844 48.2604 182.729 48.1875 182.562 48.125C182.417 48.0417 182.271 47.9583 182.125 47.875C182 47.8333 181.802 47.7812 181.531 47.7188C181.26 47.6562 180.969 47.6042 180.656 47.5625C180.365 47.5 180.083 47.4583 179.812 47.4375C179.562 47.3958 179.396 47.375 179.312 47.375C179.25 47.375 179.135 47.375 178.969 47.375C178.823 47.3542 178.646 47.3438 178.438 47.3438C178.25 47.3438 178.062 47.3438 177.875 47.3438C177.688 47.3229 177.542 47.3125 177.438 47.3125C177.375 47.3125 177.271 47.3229 177.125 47.3438C177 47.3438 176.865 47.3438 176.719 47.3438C176.594 47.3438 176.479 47.3542 176.375 47.375C176.271 47.375 176.208 47.375 176.188 47.375L175.75 47.875V48.9375C175.75 50.1667 175.708 51.3542 175.625 52.5C175.542 53.625 175.5 54.8021 175.5 56.0312C175.5 56.6562 175.552 57.1146 175.656 57.4062C175.76 57.6979 175.927 57.9062 176.156 58.0312C176.385 58.1562 176.677 58.25 177.031 58.3125C177.385 58.375 177.823 58.4792 178.344 58.625C178.385 58.625 178.458 58.6562 178.562 58.7188C178.667 58.7812 178.74 58.8438 178.781 58.9062H181.219H183.531C183.573 58.9062 183.667 58.8958 183.812 58.875C183.958 58.8333 184.115 58.8021 184.281 58.7812C184.448 58.7396 184.594 58.7083 184.719 58.6875C184.865 58.6458 184.958 58.625 185 58.625H186.5H187.094C187.135 58.625 187.208 58.5938 187.312 58.5312C187.417 58.4479 187.521 58.3646 187.625 58.2812C187.75 58.1771 187.854 58.0833 187.938 58C188.021 57.9167 188.073 57.875 188.094 57.875C188.24 57.8125 188.354 57.7812 188.438 57.7812C188.542 57.7604 188.625 57.75 188.688 57.75C188.75 57.7292 188.812 57.6979 188.875 57.6562C188.938 57.5938 189 57.5 189.062 57.375C189.292 57.0417 189.458 56.6979 189.562 56.3438C189.667 55.9896 189.802 55.6354 189.969 55.2812C190.052 55.2188 190.156 55.0938 190.281 54.9062C190.406 54.6979 190.479 54.5625 190.5 54.5C190.521 54.5 190.583 54.4688 190.688 54.4062C190.792 54.3229 190.896 54.2396 191 54.1562C191.104 54.0521 191.198 53.9583 191.281 53.875C191.365 53.7708 191.417 53.6979 191.438 53.6562C191.458 53.5938 191.5 53.5104 191.562 53.4062C191.646 53.2812 191.729 53.1562 191.812 53.0312C191.896 52.8854 191.969 52.7604 192.031 52.6562C192.115 52.5312 192.167 52.4479 192.188 52.4062C192.188 52.3854 192.219 52.3438 192.281 52.2812C192.323 52.2604 192.365 52.2292 192.406 52.1875C192.406 52.1458 192.417 52.125 192.438 52.125H192.5C192.812 52.125 193 52.25 193.062 52.5C193.125 52.7292 193.156 52.9688 193.156 53.2188V53.875C193.156 53.9792 193.167 54.2292 193.188 54.625C193.208 55.0208 193.219 55.4479 193.219 55.9062C193.24 56.3438 193.26 56.7604 193.281 57.1562C193.302 57.5521 193.312 57.7917 193.312 57.875V57.9688C193.312 58.2396 193.26 58.5521 193.156 58.9062C193.052 59.2396 192.906 59.5625 192.719 59.875C192.531 60.1875 192.302 60.4479 192.031 60.6562C191.781 60.8646 191.51 60.9792 191.219 61C191.073 60.9792 190.802 60.9583 190.406 60.9375C190.031 60.9167 189.625 60.8958 189.188 60.875C188.75 60.8542 188.333 60.8333 187.938 60.8125C187.542 60.7917 187.26 60.7604 187.094 60.7188H186.5H185.969C185.865 60.7604 185.625 60.8021 185.25 60.8438C184.875 60.8646 184.469 60.8854 184.031 60.9062C183.615 60.9271 183.208 60.9479 182.812 60.9688C182.438 60.9896 182.208 61 182.125 61H170.281C170.219 61.0208 170.115 61.0417 169.969 61.0625C169.844 61.0833 169.698 61.0938 169.531 61.0938C169.385 61.1146 169.24 61.125 169.094 61.125C168.948 61.1458 168.844 61.1562 168.781 61.1562C168.781 61.1979 168.708 61.2188 168.562 61.2188C168.417 61.2188 168.281 61.2083 168.156 61.1875C168.031 61.1667 167.948 61.1562 167.906 61.1562C167.823 61.2188 167.656 61.2917 167.406 61.375C167.156 61.4583 166.979 61.5 166.875 61.5C166.771 61.5 166.594 61.4792 166.344 61.4375C166.115 61.3958 165.865 61.3438 165.594 61.2812C165.323 61.2396 165.062 61.1875 164.812 61.125C164.562 61.0833 164.375 61.0417 164.25 61Z" fill="#EDEDED"/>
<defs>
<linearGradient id="paint0_linear_3_36" x1="197" y1="6.5" x2="149" y2="73" gradientUnits="userSpaceOnUse">
<stop stop-color="#9E4949" stop-opacity="0.58"/>
<stop offset="1" stop-color="#09074F" stop-opacity="0.29"/>
</linearGradient>
</defs>
</svg>
