<svg width="261" height="117" viewBox="0 0 261 117" fill="none" xmlns="http://www.w3.org/2000/svg">
<path d="M29.0775 31.4885C29.3827 31.0881 29.8838 31.9081 29.9182 31.92C33.3035 27.4888 41.0867 22.101 41.5001 21.9805C41.2552 21.9899 40.6936 21.2203 40.9585 21.2711C40.2649 21.5827 32.6744 26.7805 29.0775 31.4885" fill="#FAFAFA"/>
<path d="M22.7866 0.215889C21.074 -0.0889435 20.6976 0.726365 19.4186 1.05768C19.3109 1.69487 20.4312 2.84461 22.5587 3.05701C23.1104 3.33692 22.8905 3.91127 23.0153 3.5945C29.355 8.43703 38.9748 22.2604 39.5653 21.9733C38.0642 21.9883 39.5146 21.2602 39.8314 21.4316C39.3399 21.0593 29.7155 7.35376 23.9133 2.76777C22.883 3.05962 22.7549 2.11084 22.4958 2.11863C22.1604 1.90831 21.2383 1.33811 21.8144 1.40147C20.951 0.808421 21.5736 0.857753 22.9407 1.38589C28.9347 1.24983 45.243 1.84392 66.1998 14.3976C65.8076 14.2444 65.3459 13.7448 66.2558 13.17C44.843 0.43763 29.5444 -0.620194 22.7866 0.215889Z" fill="#FAFAFA"/>
<path d="M43.4269 19.6587C42.9516 19.7018 43.3086 20.7971 43.5044 20.6703C44.6595 20.6091 61.72 13.4665 78.8616 17.1001C78.6699 17.0549 79.0036 16.0361 79.4987 15.8091C61.8374 12.2301 43.9252 19.4983 43.4269 19.6587Z" fill="#FAFAFA"/>
<path d="M79.6996 36.7491C79.6986 36.7392 79.6972 36.7065 79.6972 36.7013L79.6996 36.7491ZM95.6207 28.2594C95.3169 28.3342 103.639 31.1277 112.5 31.5C116 33 115.5 34.5 115.5 34.5C115.5 34.5 115.804 37.8252 115.5 39.5C115.454 39.7524 114.147 47.2338 105.491 50.2957C99.2393 52.0135 91.051 52.1382 85.5849 47.0246C82.9777 45.3742 81.4577 41.6596 80.9515 36.3684C81.5674 36.6831 80.3058 36.5844 80.4217 36.8171C80.086 36.5569 80.0092 37.0056 81.1404 36.6873C80.214 34.2652 83.2574 29.3697 82.7198 28.3778C83.9336 28.4495 81.6558 27.8165 82.1803 28.7492C82.7415 28.3612 79.1693 32.8091 79.2229 36.263C79.7576 35.9561 79.0292 36.4037 79.3683 36.6545C80.2565 41.4311 82.2271 45.4516 85.6695 48.3208C91.2669 53.3933 99.6861 52.8361 105.305 51.1089C115.855 47.748 116.5 41.5 116.5 40.5C116.5 37.5 116.5 36.5 116 33C116 32.5 115.002 30.3387 110.985 30.6446C103.509 29.5909 95.073 26.7851 95.57 27.4202C96.0675 27.4114 95.3372 28.0637 95.6207 28.2594Z" fill="#FAFAFA"/>
<path d="M66.5848 38.7666C66.0791 40.0939 66.2467 39.8176 66.2071 41.2151C66.2467 42.8888 66.6229 43.8184 67.6749 45.475C69.6673 47.3341 72.8517 48.6822 75.6309 48.8816C75.6091 49.7592 75.0281 51.8027 71.1979 53.0901C65.0855 54.2086 60.6777 54.6558 56.736 43.6501C56.876 43.9383 55.7323 44.3652 55.2 44.1346C59.8696 56.2905 65.0387 55.47 70.6246 53.734C77.4426 52.9566 77.4629 48.1795 77.3315 48.421C77.2132 47.8134 77.161 47.9749 77.2924 48.0632C77.1412 47.4021 76.9287 47.7397 76.4906 47.5127C72.8444 47.4047 70.1285 45.9579 68.7525 44.9157C67.0842 42.745 67.0542 40.9882 67.6198 39.518C68.7245 34.6074 77.5875 25.9922 77.161 25.4469C77.0378 25.7491 76.8316 24.8829 76.5123 25.1727C76.0206 25.3332 67.9753 33.9983 66.5848 38.7666" fill="#FAFAFA"/>
<path d="M109.592 36.6582C107.247 35.0104 106.298 35.8107 100.383 36.45C100.579 35.7224 99.5432 35.9073 98.9105 35.7421C92.2287 36.1856 87.2176 31.0092 84.9557 28.6297C84.6021 28.1925 85.2817 27.7095 84.2655 27.0983C82.0384 24.8824 79.9219 22.1259 73.811 21.9167C62.1881 21.2883 58.4125 33.3606 57.345 33.9905C58.0294 33.828 58.37 34.3353 59.0433 34.0258C59.9469 34.3364 64.3195 22.5227 72.9749 23.0337C80.726 23.7057 82.3586 25.2719 82.2504 28.0029C83.2497 28.1956 83.7858 29.161 84.818 29.673C86.5621 31.703 92.3267 36.9521 98.6902 37.3286C99.1906 37.4912 101.222 37.4034 100.495 37.4855C105.941 37.6366 107.017 36.5684 108.276 37.5327" fill="#FAFAFA"/>
<path d="M30.8778 70.0397C20.7008 81.9567 18.9339 91.3282 20.8199 98.8051C21.3083 97.7759 21.1527 99.434 22.0632 98.7769C23.625 100.655 23.8262 98.3944 26.6664 96.4011C27.0577 96.4983 27.8922 95.668 29.7184 94.3391C32.4754 91.8609 34.3063 90.5024 38.105 88.9647C40.2523 87.01 44.3076 87.6295 44.1933 89.4929C42.8333 91.8371 36.0227 93.9521 33.4401 98.7672C30.9453 103.608 25.5637 114.26 26.48 121.903C23.7592 118.54 21.6185 112.664 21.3115 103.768C20.8925 103.996 20.5395 104.979 20.5333 103.208C20.4867 117.817 25.9843 123.46 25.3489 121.655C25.0006 124.21 27.4509 123.898 26.5517 123.892C26.3006 122.851 26.7325 121.443 27.6183 122.803C26.6111 115.723 30.9194 107.47 34.7001 101.192C37.1164 96.2206 45.9607 88.503 47.2182 89.982C47.5067 87.9117 48.7017 87.8934 47.8506 89.5583C47.1273 87.2283 47.3309 87.1612 46.918 89.0681C46.9845 86.8082 41.6737 86.1402 37.2013 86.9707C34.3616 89.4388 30.5025 92.7037 27.7488 94.8911C27.0749 95.1361 27.067 95.3118 26.7498 97.5525C24.6114 98.1378 22.9726 99.5898 23.0503 97.7183C21.9425 97.1152 21.8868 97.5978 22.7434 96.8697C21.2151 93.3632 21.4262 82.6012 31.3296 69.1377C41.653 60.8236 62.2904 54.7212 62.245 55.9006C62.5343 55.2904 62.7087 54.8728 62.0025 52.699C61.8344 55.1694 40.2342 57.983 30.8778 70.0397" fill="#FAFAFA"/>
<path d="M12.4766 89.1351C16.022 102.249 22.1023 105.582 22.1934 105.389C22.1498 105.111 22.5812 104.604 22.9038 104.137C22.8621 104.029 16.6931 101.117 13.6055 89.1744C13.5498 88.8588 12.5976 89.1627 12.4766 89.1351Z" fill="#FAFAFA"/>
<path d="M6.48047 89.6611C6.42894 89.6441 5.97994 90.7693 5.92841 90.8727C6.12673 91.1142 7.20913 90.3934 7.13271 90.5553C7.07065 90.5492 11.4939 88.7779 13.6319 88.3442C13.5781 88.4428 13.6517 87.533 13.7438 87.5948C12.0178 87.2303 9.6262 88.1064 8.11021 88.8049C9.29771 86.4601 12.3881 81.3802 14.3098 78.6258C14.3904 78.251 13.4062 77.9211 13.4326 77.6944C13.1187 78.0033 7.14213 87.5123 6.48047 89.6611" fill="#FAFAFA"/>
<path d="M9.74373 79.2594C9.88414 79.2138 10.6807 79.5742 10.6624 79.0527C8.60907 56.3944 21.6519 41.9369 22.0964 42.2838C21.8727 41.3766 20.9952 40.2585 20.982 41.5038C20.9372 41.669 7.48214 56.948 9.74373 79.2594" fill="#FAFAFA"/>
<path d="M20.9965 76.1878C21.8138 76.489 22.3477 76.8239 22.7866 77.4347C26.5428 64.4566 47.611 54.7773 47.3429 54.1609C47.7495 53.8779 46.753 52.9249 47.0241 52.8133C45.8522 53.7138 26.5366 63.593 20.9965 76.1878" fill="#FAFAFA"/>
<path d="M51.5886 52.0442C51.6698 52.092 51.9799 53.1716 52.0132 53.2537C51.9591 53.2085 58.6515 50.9209 58.4177 50.9401C58.4279 50.9183 58.3042 49.767 58.3289 49.8615C58.098 49.8574 51.5949 52.1543 51.5886 52.0442Z" fill="#FAFAFA"/>
<path d="M43.868 61.2785C44.1559 61.4576 44.4089 62.6084 43.942 63.6335C44.2067 63.3967 43.735 64.0163 43.655 64.1154C43.6992 64.0604 51.9601 67.8809 52.1755 68.03C52.1123 68.0362 52.5914 66.9254 52.4779 66.9929C52.3765 66.8828 45.867 63.7374 45.1957 63.618C45.129 63.2243 45.2176 62.867 45.4123 62.4557C45.2518 61.629 45.1223 60.9975 45.1365 61.0391C45.079 61.0474 43.9116 61.3958 43.868 61.2785" fill="#FAFAFA"/>
<path d="M52.5638 68.7663C52.8497 69.0322 57.5609 81.464 62.642 85.5845C62.5566 85.4257 63.4767 84.6208 63.5298 84.8581C58.8152 80.8371 53.7404 68.3161 53.6235 68.113C53.4143 68.313 52.5614 68.4423 52.5638 68.7663" fill="#FAFAFA"/>
<path d="M60.6371 55.1528C60.7352 55.9946 67.1147 70.1675 64.0428 83.9415C64.0235 83.8952 65.1479 84.0819 65.074 84.3865C68.1333 69.0312 61.7577 55.6991 61.693 55.1008C61.7094 55.6658 60.7816 55.7157 60.6371 55.1528Z" fill="#FAFAFA"/>
<path d="M0 34.2408C0.577145 34.2574 0.0205651 35.0727 0.572431 35.2753C-0.334514 35.1953 19.4451 38.5568 24.7235 39.8857C22.6406 40.7145 21.257 42.2283 22.5544 42.4282C21.2257 42.4645 22.9896 42.1223 22.4366 42.5217C23.8385 42.2532 33.6814 42.518 35.5448 43.5C37.0373 43.525 36.6255 42.1358 36.1721 42.0912C34.3784 41.3423 26.7146 41.3003 24.2128 41.078C24.1982 40.5556 25.9844 39.6146 25.9272 39.7517C25.3957 39.6125 25.1603 39.4245 24.5697 39.4204C23.6324 38.2135 10.2433 35.6642 3.4559 34.5794C24.3775 30.8248 45.9266 36.8893 45.1898 36.7049C44.5123 36.6623 45.1227 35.7858 45.9825 35.5988C45.4302 35.4752 22.183 29.0789 0 34.2408" fill="#FAFAFA"/>
<path d="M42.8913 31.2048C42.8448 31.0475 43.9376 31.9162 43.9653 31.8892C45.0545 29.3415 57.2237 25.9811 61.8841 24.9695C61.7378 24.8838 61.4335 23.6245 61.1795 23.7933C59.5513 24.1121 45.0379 28.1035 42.8913 31.2048" fill="#FAFAFA"/>
<path d="M53.2897 34.0092C53.1468 33.9738 54.4238 33.9198 54.3441 34.0086C53.6969 28.6317 58.7177 21.8974 58.7548 21.8782C58.8312 21.5147 57.8951 20.6822 57.8603 21.1174C57.8154 21.0982 52.6869 28.4136 53.2897 34.0092" fill="#FAFAFA"/>
<path d="M50.2145 34.2881C50.2362 34.2377 51.3307 34.0653 51.3481 33.9453C51.0936 31.6713 53.2323 24.7765 54.2277 22.4032C54.1369 22.2293 53.213 21.8964 53.2246 22.1929C53.0328 22.5128 49.8783 31.1748 50.2145 34.2881Z" fill="#FAFAFA"/>
<path d="M46.2213 34.7186C46.2373 34.6262 47.3265 34.4719 47.2703 34.5389C46.4045 29.4554 49.5861 22.3337 49.6387 22.5585C49.5595 22.5435 48.6292 22.0034 48.5964 22.0127C48.5283 22.075 45.2679 29.3485 46.2213 34.7186" fill="#FAFAFA"/>
<path d="M86.6916 19.8015C87.7778 20.34 88.6535 21.7593 89.8417 22.7875C91.2028 24.6721 92.8571 26.8973 94.9412 28.0668C94.974 27.9504 95.3199 26.8261 95.3556 26.877C93.7274 25.9932 91.835 23.9632 90.3469 22.0745C89.4447 20.6345 88.2237 19.4665 87.3171 18.8584C87.2509 18.7317 86.5573 19.7252 86.6916 19.8015" fill="#FAFAFA"/>
<path d="M89.9571 20.2435C88.809 19.4723 86.9436 19.1638 86.9436 19.1638C86.9436 19.1638 86.2259 16.2323 83.212 15.7691C80.1986 15.3064 78.6201 18.3921 78.6201 18.3921C78.4767 19.318 79.3379 18.3921 80.6294 17.9289C80.6294 17.9289 80.9385 19.8477 82.0644 20.0897C84.2166 20.5519 84.7909 19.0096 84.7909 19.0096C84.7909 19.0096 84.745 18.7354 84.5784 18.4347C85.5975 19.0231 87.3735 19.3289 87.3735 19.7807L91.1052 23.4839C91.1052 23.4839 91.1052 21.0151 89.9571 20.2435" fill="#176FC1"/>
<path d="M89.9571 20.2435C88.809 19.4723 86.9436 19.1638 86.9436 19.1638C86.9436 19.1638 86.2259 16.2323 83.212 15.7691C80.1986 15.3064 78.6201 18.3921 78.6201 18.3921C78.4767 19.318 79.3379 18.3921 80.6294 17.9289C80.6294 17.9289 80.9385 19.8477 82.0644 20.0897C84.2166 20.5519 84.7909 19.0096 84.7909 19.0096C84.7909 19.0096 84.745 18.7354 84.5784 18.4347C85.5975 19.0231 87.3735 19.3289 87.3735 19.7807L91.1052 23.4839C91.1052 23.4839 91.1052 21.0151 89.9571 20.2435" fill="#FAFAFA"/>
<path d="M77.5363 17.0757C77.4218 17.0648 78.1999 17.582 78.253 17.5986C80.8482 13.0495 85.5376 14.6541 85.5618 14.5648C85.6999 14.663 86.1926 13.5018 86.0873 13.5963C86.0945 13.4852 80.3391 11.556 77.5363 17.0757Z" fill="#FAFAFA"/>
<path d="M81.8011 17.6665C81.8011 17.6665 81.4182 18.529 81.8012 19C82.1842 19.4705 84 18.1665 84 18.1665C84 18.1665 81.7465 18.2549 81.8011 17.6665Z" fill="#0B0A0A"/>
<path d="M77.9589 28.4043L77.2591 28.4848C77.2591 28.4848 79.7789 30.1622 80.4952 30.6389C79.6267 30.8388 76.2858 31.609 76.2858 31.609C76.2858 31.609 78.8699 33.2754 79.4388 33.6426C78.8211 33.9879 75.6159 35.7795 75.6159 35.7795L76.0926 35.9935C76.1641 36.0257 77.7725 36.7356 79.2355 36.9454C79.1998 36.9614 79.165 36.9781 79.1312 36.9936C78.3816 37.3312 77.2494 37.8417 76.7345 38.672C76.6133 38.8673 76.5713 39.0439 76.5713 39.1945C76.5713 39.3295 76.6051 39.4442 76.6457 39.5331C77.0345 40.3837 78.9602 40.6979 79.9136 40.8038C79.4553 41.4348 78.583 42.7117 78.3516 43.58L78.27 43.8874L78.567 43.9103C78.6429 43.916 80.2092 44.0308 81.3148 43.9508C80.9965 44.6233 80.4087 45.9335 80.2947 46.6709L80.2512 46.9498C80.2512 46.9498 83.2386 47.2063 83.8684 47.2608C83.1647 48.4786 82.0881 50.1487 81.6423 50.3403L81.7321 50.8409C81.7669 50.8409 85.244 50.8316 88.2362 50.0272L88.1193 49.524C85.9661 50.1025 83.5632 50.2604 82.417 50.304C83.2255 49.3895 84.2456 47.602 84.4876 47.1689L84.6881 46.8101C84.6881 46.8101 81.3196 46.5208 80.8352 46.4788C81.0936 45.4859 81.9355 43.7929 81.9446 43.7742L82.1712 43.3214L81.6978 43.3941C80.9192 43.5141 79.5422 43.4497 78.9278 43.4128C79.3572 42.3311 80.555 40.7721 80.5686 40.7555L80.8709 40.365L80.3995 40.3297C79.1737 40.2388 77.333 39.8602 77.0789 39.304C77.0659 39.275 77.0543 39.2396 77.0543 39.1945C77.0543 39.1358 77.0741 39.0605 77.1364 38.9603C77.5706 38.2597 78.6221 37.7861 79.3176 37.4724C79.8726 37.2227 80.1247 37.1089 80.1247 36.8628C80.1247 36.8446 80.1233 36.8259 80.1204 36.8057C80.0812 36.5247 79.7499 36.4889 79.5074 36.4629C78.5236 36.357 77.403 35.9628 76.7751 35.7172C77.502 35.3106 80.428 33.6753 80.428 33.6753C80.428 33.6753 78.299 32.3017 77.5846 31.8406C78.4646 31.638 81.7698 30.8762 81.7698 30.8762C81.7698 30.8762 79.4953 29.363 78.71 28.84C79.6823 28.7284 82.2079 28.437 82.2079 28.437L82.1562 27.9208L77.9589 28.4043" fill="#FAFAFA"/>
<path d="M75.5652 27.2343C75.5652 27.2343 76.1617 27.8757 76.55 28.2927C75.8178 28.3649 73.2777 28.6131 73.2777 28.6131C73.2777 28.6131 74.6977 30.2671 75.1121 30.7495C74.4243 30.8861 70.8955 31.5887 70.8955 31.5887L71.408 31.9429C71.5799 32.0618 72.8072 32.9062 73.5472 33.3403C72.3938 33.9578 70.258 35.0104 69.4402 35.0104H68.5979L69.3118 35.4902C69.3548 35.5188 70.2101 36.0848 71.1264 36.3663C70.3029 37.0134 68.4201 38.3952 67.3416 38.3952V38.9146C68.9065 38.9146 71.7195 36.5424 71.8383 36.4411L72.2803 36.0662L71.7229 35.9805C71.179 35.8969 70.5888 35.6263 70.1618 35.3978C71.6616 34.9792 74.078 33.6343 74.1987 33.5667L74.7035 33.2832L74.1635 33.09C73.9118 33.0002 72.9797 32.3947 72.188 31.8593C73.0637 31.6853 76.0607 31.0886 76.0607 31.0886C76.0607 31.0886 74.7387 29.5489 74.2968 29.0348C75.0054 28.9652 77.6208 28.7097 77.6208 28.7097L75.9066 26.8672L75.5652 27.2343Z" fill="#FAFAFA"/>
<path d="M67.2832 39.7132C67.2832 39.7132 69.1848 40.2237 69.8329 40.3982C69.3248 40.876 67.403 42.6847 67.403 42.6847C67.403 42.6847 69.6871 43.1178 70.1508 43.2056C69.9846 43.6335 69.3649 45.2335 69.3649 45.2335C69.3649 45.2335 72.233 44.9868 72.9956 44.9208C72.6909 45.3893 71.8881 46.6226 71.8881 46.6226L72.489 46.484C72.5638 46.4668 74.1046 46.109 74.9209 45.7974C74.9561 46.2861 75.0459 47.5392 75.0459 47.5392L75.5275 47.4992L75.3498 45.019L75.0286 45.1919C74.6794 45.3794 73.7071 45.6484 72.9947 45.8286C73.3052 45.3514 73.9795 44.3153 73.9795 44.3153C73.9795 44.3153 70.7463 44.5937 70.115 44.6482C70.3082 44.1492 70.8284 42.8073 70.8284 42.8073C70.8284 42.8073 69.1234 42.4837 68.4796 42.3617C69.0177 41.8559 70.8463 40.1349 70.8463 40.1349L67.4001 39.2095L67.2832 39.7132" fill="#FAFAFA"/>
<path d="M79.5437 10.4618C79.3418 10.7074 77.5644 12.9098 77.2958 14.4994C77.2422 14.8167 77.4378 15.121 77.7329 15.1786C78.0285 15.2363 78.3111 15.0254 78.3652 14.7082C78.5473 13.6316 79.8659 11.8359 80.3585 11.2345C80.557 10.9925 80.5353 10.6233 80.3102 10.4104C80.0851 10.1969 79.7422 10.2198 79.5437 10.4618Z" fill="#FAFAFA"/>
<path d="M116.974 32.229C117.345 33.9682 117.615 35.7224 117.889 37.6589L117.984 38.3101C118.091 39.0397 118.177 39.6213 118.177 40.0404C118.177 40.3224 118.139 40.5312 118.041 40.6615C117.816 40.9632 117.095 41.0847 116.38 41.1491C116.342 40.8594 116.319 40.5535 116.319 40.2243C116.319 39.6842 116.357 39.1067 116.396 38.5386C116.436 37.9419 116.477 37.3328 116.477 36.7439C116.477 36.3383 116.457 35.9426 116.405 35.5666L116.055 33.8139C115.95 33.358 115.858 32.9171 115.783 32.4793C116.143 32.3277 116.553 32.2446 116.974 32.229ZM115.152 31.0507C114.885 31.0673 114.681 31.314 114.696 31.6017C114.742 32.4502 114.931 33.2707 115.114 34.0648L115.446 35.7219C115.559 36.5278 115.493 37.5114 115.428 38.4633C115.35 39.6354 115.268 40.8474 115.509 41.8377C115.567 42.0782 115.776 42.2407 116.007 42.2262C117.374 42.1379 118.319 41.9546 118.797 41.3143C119.308 40.6303 119.17 39.6956 118.941 38.146L118.848 37.502C118.549 35.3921 118.266 33.4904 117.84 31.5804C117.79 31.3571 117.61 31.1951 117.397 31.1821C116.784 31.1437 116.173 31.2501 115.624 31.4485C115.566 31.2153 115.386 31.0362 115.152 31.0507" fill="#FAFAFA"/>
<path d="M123.237 38.0748C123.229 38.0743 123.221 38.0743 123.212 38.0738C123.22 38.0738 123.229 38.0743 123.237 38.0748ZM117.837 31.9413L117.619 32.0358C117.371 32.1433 117.25 32.4476 117.351 32.7145C117.451 32.9815 117.733 33.1108 117.982 33.0027L118.201 32.9077C120.279 32.0036 121.583 31.5539 122.166 32.9306C122.616 33.9946 122.871 35.5048 122.871 36.8882C122.871 37.3171 122.821 37.7087 122.77 38.0961C121.117 38.1756 119.532 39.0807 118.695 39.6618C118.551 39.7615 118.473 39.9293 118.473 40.1006C118.473 40.1972 118.498 40.2954 118.551 40.3826C118.696 40.6246 118.996 40.6942 119.221 40.5379C120.039 39.9703 121.642 39.0303 123.187 39.116C123.427 39.1295 123.64 38.9509 123.688 38.6975C124.038 36.8098 123.769 34.2029 123.048 32.4985C122.038 30.1133 119.709 31.127 117.837 31.9413" fill="#FAFAFA"/>
<path d="M18.9816 41.8185C19.0082 50.157 31.0759 62.6453 38.0657 65.1655L38.2961 64.427C31.6506 62.0309 19.7312 49.714 19.7061 41.8159L18.9816 41.8185" fill="#FAFAFA"/>
<path d="M17.5327 43.3764C17.5593 51.7149 29.6269 64.2032 36.6168 66.7234L36.8472 65.9849C30.2016 63.5889 18.2823 51.272 18.2572 43.3738L17.5327 43.3764" fill="#FAFAFA"/>
<path d="M18.0399 42.0896L17.3154 42.6738L17.7503 43.297L19.1993 42.1285L18.7644 41.5054L18.0399 42.0896Z" fill="#FAFAFA"/>
<path d="M36.5464 66.7987L36.9175 67.4676C37.9588 66.7997 38.521 65.7435 38.5431 64.414L37.8186 64.4C37.8013 65.4464 37.3614 66.2758 36.5464 66.7987" fill="#FAFAFA"/>
<path d="M124.057 35.1932C145.299 9.69422 146.07 9.5187 157.555 34.6064C169.04 59.693 169.04 59.693 184.258 34.6064C199.475 9.5187 201.538 20.7731 204.548 34.529C210.129 60.0394 213.565 48.1842 224.836 34.4947C234.933 22.2329 235.448 23.2647 240.053 34.6723C244.45 45.5632 247.14 48.6578 259.328 34.5737" stroke="white" stroke-width="2" stroke-linecap="round"/>
</svg>
