<svg width="40" height="40" viewBox="0 0 40 40" fill="none" xmlns="http://www.w3.org/2000/svg">
<circle cx="20" cy="20" r="20" fill="url(#paint0_linear_27_31)"/>
<path d="M19.8692 4C20.4082 4 20.9004 4.30762 21.1348 4.79219L25.1543 13.0703L34.1367 14.4004C34.6641 14.4766 35.0977 14.8457 35.2676 15.3496C35.4317 15.8594 35.2969 16.416 34.9219 16.7852L28.4063 23.2422L29.9473 32.3535C30.0352 32.8809 29.8184 33.4199 29.3789 33.7305C28.9453 34.041 28.3184 34.082 27.8965 33.8301L19.8692 29.541L11.7949 33.8301C11.3731 34.082 10.7988 34.041 10.3594 33.7305C9.9258 33.4199 9.70901 32.8809 9.74416 32.3535L11.3321 23.2422L4.82287 16.7852C4.44436 16.416 4.31018 15.8594 4.47658 15.3496C4.6424 14.8457 5.0801 14.4766 5.60686 14.4004L14.584 13.0703L18.6035 4.79219C18.8438 4.30756 19.3301 4 19.8692 4ZM19.8692 8.62598L16.793 14.9687C16.5879 15.3848 16.1895 15.6777 15.7324 15.748L8.79963 16.7676L13.834 21.7539C14.1563 22.0762 14.3028 22.5391 14.2266 22.9902L13.043 29.998L19.2071 26.7051C19.6231 26.4824 20.1211 26.4824 20.5313 26.7051L26.6953 29.998L25.5117 22.9902C25.4356 22.5391 25.5879 22.0762 25.9102 21.7539L30.9434 16.7676L24.0117 15.748C23.5488 15.6777 23.1504 15.3848 22.9512 14.9687L19.8692 8.62598Z" fill="#040837"/>
<defs>
<linearGradient id="paint0_linear_27_31" x1="30.75" y1="3.25" x2="6.75" y2="36.5" gradientUnits="userSpaceOnUse">
<stop stop-color="#9E4949" stop-opacity="0.58"/>
<stop offset="1" stop-color="#09074F" stop-opacity="0.29"/>
</linearGradient>
</defs>
</svg>
